<svg xmlns="http://www.w3.org/2000/svg" viewBox="0 0 100 100" fill="currentColor">
  <circle cx="50" cy="15" r="10"/>
  <path d="M50 30c-1.5 0-2.8.7-3.7 1.8l-15 20c-1.5 2-1.1 4.8.9 6.3 2 1.5 4.8 1.1 6.3-.9L48 44v11l-12 22c-1.2 2.2-.4 5 1.8 6.2 2.2 1.2 5 .4 6.2-1.8l6-11 6 11c1.2 2.2 4 3 6.2 1.8 2.2-1.2 3-4 1.8-6.2L52 55V44l9.5 12.2c1.5 2 4.3 2.4 6.3.9 2-1.5 2.4-4.3.9-6.3l-15-20c-.9-1.1-2.2-1.8-3.7-1.8z"/>
  <circle cx="50" cy="50" r="45" fill="none" stroke="currentColor" stroke-width="5"/>
</svg>